# xmcd
#
# Track frame offsets:
#	150
#	12827
#	25504
#	40244
#	53211
#	68161
#	79854
#	91316
#	105221
#	119524
#	133179
#	146332
#	157434
#	170054
#	181864
#	195024
#	208674
#	221482
#
# Disc length: 3118 seconds
#
# Revision: 0
# Processed by: cddbd v1.5.2PL0 Copyright (c) Steve Scherf et al.
# Submitted via: audiograbber 1.83.01
#
DISCID=f30c2c12
DTITLE=The Clovers - Ting-A-Ling
DYEAR=2004
DGENRE=blues
TTITLE0=Yes Sir, That´s My Baby
TTITLE1=When You Come Back to Me
TTITLE2=Don´t You Know I Love You
TTITLE3=Skylark
TTITLE4=Needless
TTITLE5=Fool Fool Fool
TTITLE6=One Mint Julep
TTITLE7=Middle of the Night
TTITLE8=Ting-a-Ling
TTITLE9=Wonder Where My Baby´s  Gone
TTITLE10=I Played the Fool
TTITLE11=Hey Miss Fannie
TTITLE12=Yes It´s  You
TTITLE13=Crawlin´
TTITLE14=Here Goes a Fool
TTITLE15=Good Lovin´
TTITLE16=Comin´ On
TTITLE17=The Feeling is So Good
EXTD=
EXTT0=
EXTT1=
EXTT2=
EXTT3=
EXTT4=
EXTT5=
EXTT6=
EXTT7=
EXTT8=
EXTT9=
EXTT10=
EXTT11=
EXTT12=
EXTT13=
EXTT14=
EXTT15=
EXTT16=
EXTT17=
PLAYORDER=
